<svg width="10" height="10" viewBox="0 0 10 10" fill="none" xmlns="http://www.w3.org/2000/svg">
<path d="M9.89609 7.69068C9.53984 7.7813 9.31953 7.69458 9.12187 7.39771C8.67813 6.73286 8.18828 6.09849 7.71562 5.45239C7.65469 5.3688 7.59141 5.28677 7.5125 5.18286C6.95312 5.93755 6.39453 6.6563 5.87031 7.40396C5.68281 7.67114 5.48594 7.78755 5.13594 7.69302L7.23906 4.87036L5.28125 2.32114C5.61797 2.25552 5.85078 2.28911 6.05703 2.59068C6.5125 3.2563 7.01484 3.88989 7.51562 4.56021C8.01953 3.89224 8.51562 3.25786 8.98438 2.59849C9.17266 2.3313 9.375 2.22974 9.71328 2.32818C9.45703 2.66802 9.20625 3.00239 8.95391 3.33443C8.61328 3.78208 8.27891 4.23521 7.92578 4.67349C7.8 4.82974 7.82031 4.9313 7.93281 5.07896C8.58594 5.93755 9.23125 6.80474 9.89609 7.69068ZM0.103906 4.82349C0.160156 4.54146 0.197656 4.25396 0.275781 3.97739C0.744531 2.30318 2.66641 1.60708 3.98672 2.64458C4.76016 3.25318 4.95234 4.11099 4.91406 5.07818H0.554688C0.489063 6.81333 1.73828 7.86099 3.33047 7.32661C3.88906 7.13911 4.21797 6.70161 4.38281 6.15474C4.46641 5.88052 4.60469 5.83755 4.8625 5.91568C4.73047 6.60005 4.43125 7.17193 3.80625 7.52974C2.86875 8.06568 1.53047 7.89224 0.826562 7.14771C0.410937 6.71021 0.234375 6.16568 0.15625 5.57739C0.144531 5.48364 0.120312 5.39146 0.101562 5.29849C0.103125 5.14015 0.103906 4.98182 0.103906 4.82349ZM0.5625 4.70708H4.50234C4.47656 3.45239 3.69531 2.56099 2.62734 2.55318C1.45547 2.5438 0.613281 3.41411 0.5625 4.70708Z" fill="white"/>
</svg>
