<svg width="17" height="17" viewBox="0 0 17 17" fill="none" xmlns="http://www.w3.org/2000/svg">
<g clip-path="url(#clip0_2023_24)">
<path d="M5.62153 11.3492C5.01695 10.7446 5.01695 9.76173 5.62153 9.15716L7.03574 7.74294L6.36399 7.07119L4.94977 8.48541C3.97397 9.46121 3.97397 11.0451 4.94977 12.0209C5.92558 12.9967 7.5095 12.9967 8.48531 12.0209L9.89952 10.6067L9.22777 9.93498L7.81356 11.3492C7.20898 11.9538 6.2261 11.9538 5.62153 11.3492ZM7.42465 10.2532L10.2531 7.42475L9.54597 6.71764L6.71754 9.54607L7.42465 10.2532ZM8.48531 4.94987L7.07109 6.36409L7.74285 7.03584L9.15706 5.62162C9.76163 5.01705 10.7445 5.01705 11.3491 5.62162C11.9537 6.2262 11.9537 7.20908 11.3491 7.81366L9.93488 9.22787L10.6066 9.89962L12.0208 8.48541C12.9966 7.5096 12.9966 5.92568 12.0208 4.94987C11.045 3.97407 9.46112 3.97407 8.48531 4.94987Z" fill="black"/>
</g>
<defs>
<clipPath id="clip0_2023_24">
<rect width="12" height="12" fill="white" transform="translate(0 8.48535) rotate(-45)"/>
</clipPath>
</defs>
</svg>
