<svg width="24" height="24" viewBox="0 0 24 24" fill="none" xmlns="http://www.w3.org/2000/svg">
<path d="M9.00011 9.99998C9.01047 9.20755 9.32986 8.45049 9.89024 7.89011C10.4506 7.32973 11.2077 7.01034 12.0001 6.99998C12.7925 7.01034 13.5496 7.32973 14.11 7.89011C14.6704 8.45049 14.9897 9.20755 15.0001 9.99998C14.9897 10.7924 14.6704 11.5495 14.11 12.1098C13.5496 12.6702 12.7925 12.9896 12.0001 13C11.2077 12.9896 10.4506 12.6702 9.89024 12.1098C9.32986 11.5495 9.01047 10.7924 9.00011 9.99998ZM12.0001 19L16.0001 20V16.92C14.7938 17.6464 13.4081 18.0206 12.0001 18C10.5921 18.0206 9.20643 17.6464 8.00011 16.92V20M12.0001 3.99998C11.2121 3.9856 10.4294 4.13254 9.70027 4.43177C8.97112 4.73099 8.31087 5.17619 7.76011 5.73998C7.19022 6.29134 6.73988 6.95408 6.4371 7.68695C6.13431 8.41982 5.98557 9.20715 6.00011 9.99998C5.98969 10.7878 6.14044 11.5694 6.4431 12.2968C6.74576 13.0242 7.19394 13.6821 7.76011 14.23C8.3083 14.7992 8.9674 15.2499 9.69668 15.5544C10.426 15.8588 11.2099 16.0105 12.0001 16C12.7903 16.0105 13.5743 15.8588 14.3035 15.5544C15.0328 15.2499 15.6919 14.7992 16.2401 14.23C16.8063 13.6821 17.2545 13.0242 17.5571 12.2968C17.8598 11.5694 18.0105 10.7878 18.0001 9.99998C18.0146 9.20715 17.8659 8.41982 17.5631 7.68695C17.2603 6.95408 16.81 6.29134 16.2401 5.73998C15.6893 5.17619 15.0291 4.73099 14.2999 4.43177C13.5708 4.13254 12.7881 3.9856 12.0001 3.99998ZM20.0001 9.99998C19.9797 10.96 19.7866 11.9084 19.4301 12.8C19.1105 13.7078 18.6257 14.5486 18.0001 15.28V23L12.0001 21L6.00011 23V15.28C4.7058 13.8264 3.99361 11.9463 4.00011 9.99998C3.98248 8.95056 4.18014 7.90867 4.58089 6.93862C4.98163 5.96858 5.57696 5.09097 6.33011 4.35998C7.06381 3.60007 7.94547 2.99861 8.92067 2.59271C9.89587 2.1868 10.9439 1.98508 12.0001 1.99998C13.0563 1.98508 14.1043 2.1868 15.0795 2.59271C16.0547 2.99861 16.9364 3.60007 17.6701 4.35998C18.4233 5.09097 19.0186 5.96858 19.4193 6.93862C19.8201 7.90867 20.0177 8.95056 20.0001 9.99998Z" fill="black"/>
</svg>
