<svg width="32" height="32" viewBox="0 0 32 32" fill="none" xmlns="http://www.w3.org/2000/svg">
<path d="M5.33329 28C4.59996 28 3.9724 27.7391 3.45063 27.2173C2.92885 26.6956 2.66751 26.0676 2.66663 25.3333V10.6667C2.66663 9.93334 2.92796 9.30578 3.45063 8.78401C3.97329 8.26223 4.60085 8.00089 5.33329 8.00001H10.6666V5.33334C10.6666 4.60001 10.928 3.97245 11.4506 3.45067C11.9733 2.92889 12.6008 2.66756 13.3333 2.66667H18.6666C19.4 2.66667 20.028 2.92801 20.5506 3.45067C21.0733 3.97334 21.3342 4.60089 21.3333 5.33334V8.00001H26.6666C27.4 8.00001 28.028 8.26134 28.5506 8.78401C29.0733 9.30667 29.3342 9.93423 29.3333 10.6667V25.3333C29.3333 26.0667 29.0724 26.6947 28.5506 27.2173C28.0288 27.74 27.4008 28.0009 26.6666 28H5.33329ZM13.3333 8.00001H18.6666V5.33334H13.3333V8.00001Z" fill="black"/>
</svg>
